

<?xml version="1.0" encoding="UTF-8"?>  <svg xmlns="http://www.w3.org/2000/svg" xmlns:xlink="http://www.w3.org/1999/xlink" version="1.1" id="Layer_1" x="0px" y="0px" viewBox="0 0 170 60" style="enable-background:new 0 0 170 60;" xml:space="preserve"> <style type="text/css"> .st0{fill:#CE2C8A;} </style> <g> <g> <path d="M13.1,18.05c1.01,1.01,1.58,2.38,1.58,3.81v8.86c0,2.98-2.41,5.39-5.39,5.39H6.08c-0.19,0-0.35,0.16-0.35,0.35v6.5 c0,0.19-0.16,0.35-0.35,0.35H2.35c-0.19,0-0.35-0.16-0.35-0.35V16.82c0-0.19,0.16-0.35,0.35-0.35h6.94 C10.72,16.47,12.09,17.04,13.1,18.05z M10.95,21.86c0-0.92-0.74-1.66-1.66-1.66H6.08c-0.19,0-0.35,0.16-0.35,0.35v11.47 c0,0.19,0.16,0.35,0.35,0.35h3.21c0.92,0,1.66-0.74,1.66-1.66L10.95,21.86z"></path> <path d="M70.39,16.58c0.07,0.08,0.09,0.19,0.07,0.29l-4.97,26.17c-0.03,0.17-0.18,0.29-0.35,0.29h-3.58 c-0.17,0-0.31-0.12-0.35-0.29l-4.97-26.17c-0.02-0.1,0.01-0.21,0.07-0.29c0.07-0.08,0.17-0.13,0.27-0.13h3.08 c0.17,0,0.31,0.12,0.35,0.29l3.2,16.84c0.01,0.07,0.07,0.11,0.14,0.11c0.07,0,0.13-0.05,0.14-0.11l3.2-16.84 c0.03-0.17,0.18-0.29,0.35-0.29h3.08C70.22,16.45,70.32,16.5,70.39,16.58z"></path> <path d="M102.06,37.02c0,3.48-2.82,6.3-6.31,6.31h-0.07c-3.48,0-6.3-2.83-6.31-6.31V22.78c0-3.48,2.83-6.3,6.31-6.31h0.07 c3.48,0,6.3,2.83,6.31,6.31V37.02z M98.33,37.02V22.78c0-1.42-1.15-2.57-2.58-2.58h-0.07c-1.42,0-2.57,1.15-2.58,2.58v14.24 c0,1.42,1.15,2.57,2.58,2.58h0.07C97.18,39.59,98.33,38.44,98.33,37.02z"></path> <path d="M133.57,16.56c0.07,0.07,0.1,0.16,0.1,0.25v26.16c0,0.19-0.16,0.35-0.35,0.35h-3.63c-0.16,0-0.29-0.1-0.34-0.25L125,28.61 c-0.02-0.07-0.09-0.11-0.16-0.1c-0.07,0.01-0.12,0.07-0.12,0.14l0,14.31c0,0.19-0.16,0.35-0.35,0.35h-3.03 c-0.19,0-0.35-0.16-0.35-0.35l0-26.14c0-0.19,0.16-0.35,0.35-0.35h3.63c0.16,0,0.29,0.1,0.34,0.25l4.36,14.47 c0.02,0.07,0.09,0.11,0.16,0.1c0.07-0.01,0.12-0.07,0.12-0.14V16.8c0-0.19,0.16-0.35,0.35-0.35h3.03 C133.42,16.45,133.51,16.49,133.57,16.56z"></path> <path d="M167.94,16.68c0.07,0.09,0.08,0.22,0.04,0.32l-5.79,15.63c-0.01,0.04-0.02,0.08-0.02,0.12v10.21 c0,0.19-0.16,0.35-0.35,0.35h-3.03c-0.19,0-0.35-0.16-0.35-0.35V32.76c0-0.04-0.01-0.08-0.02-0.12L152.62,17 c-0.04-0.11-0.02-0.23,0.04-0.32c0.07-0.09,0.17-0.15,0.29-0.15h3.23c0.15,0,0.28,0.09,0.33,0.23l3.46,9.34 c0.05,0.14,0.18,0.23,0.33,0.23c0.15,0,0.28-0.09,0.33-0.23l3.46-9.34c0.05-0.14,0.18-0.23,0.33-0.23h3.23 C167.77,16.53,167.88,16.58,167.94,16.68z"></path> </g> <g> <circle class="st0" cx="35.47" cy="19.03" r="2.55"></circle> <circle class="st0" cx="35.47" cy="30.02" r="2.55"></circle> <circle class="st0" cx="35.47" cy="41" r="2.55"></circle> </g> </g> </svg> 